<?xml version="1.0" standalone="no"?>
<!DOCTYPE svg PUBLIC "-//W3C//DTD SVG 20010904//EN"
 "http://www.w3.org/TR/2001/REC-SVG-20010904/DTD/svg10.dtd">
<svg version="1.0" xmlns="http://www.w3.org/2000/svg"
 width="1024.000000pt" height="1024.000000pt" viewBox="0 0 1024.000000 1024.000000"
 preserveAspectRatio="xMidYMid meet">

<g transform="translate(0.000000,1024.000000) scale(0.100000,-0.100000)"
fill="#000000" stroke="none">
<path d="M5305 8844 c-90 -19 -233 -89 -310 -151 -288 -234 -359 -655 -164
-979 50 -82 150 -187 234 -243 40 -27 78 -50 84 -52 12 -4 35 -226 67 -634 9
-115 17 -211 17 -211 1 -1 105 -4 231 -7 l228 -6 -6 122 c-22 414 -25 599 -12
631 17 40 63 78 90 74 21 -3 21 -10 27 -323 4 -176 7 -366 8 -422 l1 -101 73
-12 c39 -6 81 -14 91 -17 19 -5 19 6 13 495 l-6 499 36 34 c90 87 178 245 207
376 9 40 16 116 16 173 0 178 -50 328 -155 466 -182 237 -481 348 -770 288z
m227 -365 c154 -33 272 -158 293 -309 20 -143 -66 -295 -203 -361 -70 -33
-189 -38 -265 -9 -119 45 -200 142 -226 270 -41 203 119 405 331 419 9 1 41
-4 70 -10z"/>
<path d="M6730 7093 c-48 -17 -160 -120 -160 -147 0 -13 -27 -14 -226 -9 -154
4 -228 3 -232 -4 -4 -6 -6 -47 -4 -92 l4 -81 186 -1 c103 -1 198 -4 212 -8 22
-6 11 -17 -115 -106 -77 -54 -281 -199 -453 -322 l-313 -224 -71 36 c-86 43
-164 47 -251 15 l-54 -20 -49 21 c-163 70 -462 164 -773 243 l-134 34 129 40
c184 58 327 97 503 137 84 19 155 36 158 38 4 5 -16 179 -21 184 -4 4 -194
-34 -291 -58 -168 -43 -356 -100 -498 -154 l-147 -55 -36 40 c-111 123 -318
127 -437 8 -67 -67 -91 -124 -91 -219 -1 -68 3 -83 34 -144 32 -63 85 -119
153 -160 12 -7 27 -68 58 -235 22 -124 42 -226 44 -228 3 -3 168 67 178 77 4
4 -9 85 -28 181 -37 184 -40 210 -26 210 5 0 60 -73 122 -163 l112 -163 46 21
c25 12 61 28 79 36 l33 14 -126 188 -126 188 21 30 c12 16 24 29 26 29 37 0
568 -151 734 -209 290 -100 289 -99 89 -145 -110 -25 -445 -122 -594 -171
-236 -79 -464 -170 -453 -180 7 -7 278 -86 298 -88 8 0 76 22 150 50 215 80
687 223 738 223 20 0 15 -7 -35 -47 -163 -132 -373 -318 -620 -551 l-152 -143
-40 20 c-30 16 -59 21 -114 21 -62 0 -83 -5 -135 -31 -68 -33 -101 -67 -138
-141 -21 -42 -28 -48 -47 -42 -83 25 -149 87 -167 155 -13 48 -7 95 21 158 11
24 18 45 17 46 -2 2 -41 21 -88 43 l-85 41 -27 -31 c-15 -17 -40 -56 -55 -87
-25 -50 -28 -67 -28 -156 0 -93 2 -105 33 -167 60 -122 171 -197 335 -226 78
-14 90 -19 102 -42 21 -40 100 -108 153 -132 69 -31 189 -31 258 0 58 26 123
88 151 146 19 38 22 39 174 87 162 51 495 145 614 173 39 10 75 19 82 21 7 2
15 0 18 -5 8 -13 -103 -96 -180 -134 -92 -45 -154 -62 -309 -85 -110 -17 -143
-26 -214 -61 -46 -23 -81 -47 -79 -53 6 -19 107 -55 188 -68 196 -30 372 21
654 190 148 89 292 159 409 200 148 52 410 98 661 115 l80 5 35 -52 c40 -58
111 -111 173 -128 104 -28 231 12 304 95 37 42 73 124 73 166 0 11 10 20 28
25 89 22 212 126 258 220 26 54 29 70 29 155 0 77 -4 106 -24 153 -13 31 -27
57 -32 57 -5 0 -39 -24 -77 -52 -37 -29 -85 -62 -105 -73 -32 -17 -37 -24 -37
-57 0 -20 -4 -48 -10 -62 -11 -30 -88 -116 -102 -116 -6 0 -31 15 -57 34 -58
42 -100 56 -166 56 -46 0 -55 4 -86 36 -123 128 -500 320 -854 434 -173 55
-177 57 -173 77 2 9 145 118 319 242 610 436 580 415 598 402 9 -6 31 -21 49
-32 17 -12 32 -24 32 -29 0 -11 -49 -252 -56 -273 -4 -13 -12 -17 -27 -14 -12
3 -75 19 -141 36 -160 42 -171 41 -249 -16 -35 -27 -77 -57 -92 -68 l-28 -21
114 -28 c116 -30 310 -90 342 -107 23 -13 22 -31 -17 -204 -19 -82 -32 -152
-30 -154 4 -4 206 59 216 68 4 3 14 40 23 81 28 138 14 128 103 79 l76 -42 54
59 c83 92 83 86 -1 138 -39 24 -90 53 -112 62 -22 10 -42 19 -44 21 -2 1 16
88 40 193 l43 192 42 29 c203 139 186 428 -31 531 -70 33 -160 37 -235 11z
m-968 -1383 c70 -19 305 -109 419 -160 120 -54 238 -119 356 -197 l81 -53 -35
-53 c-19 -28 -42 -55 -51 -58 -10 -4 -53 -9 -97 -13 -121 -11 -400 -44 -585
-71 -218 -31 -302 -41 -500 -60 -298 -28 -429 -53 -665 -124 -246 -75 -252
-75 -176 0 63 63 480 451 616 573 61 54 115 105 122 113 10 13 19 12 70 -7
127 -47 248 -19 333 78 25 28 50 49 57 47 6 -2 31 -9 55 -15z"/>
<path d="M5990 5474 c-197 -37 -520 -83 -660 -94 -261 -19 -221 -3 -378 -156
l-137 -135 120 6 c512 26 781 64 1197 167 200 50 245 64 237 75 -7 7 -16 13
-21 13 -5 0 -32 15 -61 33 -95 61 -184 107 -203 106 -10 0 -53 -7 -94 -15z"/>
<path d="M4980 6440 c-89 -9 -305 -47 -323 -57 -4 -3 71 -31 168 -64 l176 -59
157 0 c86 0 243 -5 348 -11 l191 -12 101 73 c56 40 99 77 97 81 -5 7 -61 18
-200 39 -92 15 -594 21 -715 10z"/>
<path d="M7034 6413 c-3 -15 -15 -59 -25 -98 -11 -38 -19 -70 -19 -71 0 -1 19
-9 41 -18 62 -25 127 -73 160 -118 33 -46 38 -97 15 -153 -44 -104 -259 -252
-479 -330 -43 -15 -76 -29 -75 -30 36 -28 250 -155 261 -155 29 0 233 109 312
167 147 108 222 221 232 347 15 180 -86 336 -279 430 -128 62 -136 64 -144 29z"/>
<path d="M3616 5990 c-156 -99 -248 -253 -232 -387 14 -120 91 -206 259 -288
146 -71 440 -158 642 -190 l41 -6 102 110 103 110 -33 5 c-327 52 -433 76
-583 136 -109 43 -150 66 -196 107 -85 77 -91 140 -22 215 l25 27 -18 95 c-10
54 -23 96 -29 96 -6 0 -32 -14 -59 -30z"/>
<path d="M4481 5482 c-23 -9 -43 -21 -42 -27 0 -11 63 -23 123 -24 38 -1 101
39 85 55 -16 16 -122 14 -166 -4z"/>
<path d="M2912 5382 c-199 -517 -248 -1348 -116 -1952 58 -265 183 -557 321
-749 228 -317 564 -549 935 -645 168 -44 312 -59 508 -53 203 6 307 23 475 78
540 175 891 565 1015 1127 66 303 76 829 25 1386 -20 211 -19 208 -53 200
-175 -38 -341 -100 -533 -198 -97 -50 -104 -56 -103 -82 1 -16 7 -134 14 -262
21 -390 1 -650 -68 -852 -114 -334 -341 -552 -671 -642 -63 -18 -104 -21 -241
-21 -147 -1 -176 2 -265 26 -119 31 -292 115 -386 187 -209 158 -368 394 -469
698 -36 108 -90 316 -90 349 0 6 24 -4 53 -23 95 -64 439 -224 482 -224 7 0
-33 65 -92 148 -354 494 -510 781 -618 1139 -36 119 -85 341 -85 386 0 46 -15
37 -38 -21z m2819 -1137 c30 -232 32 -529 5 -680 -21 -117 -72 -277 -117 -367
-161 -319 -478 -558 -856 -643 -144 -33 -211 -33 -93 0 399 111 708 380 866
757 96 227 153 604 154 1028 0 69 4 109 9 100 5 -8 19 -96 32 -195z"/>
</g>
</svg>
